<svg width="100" height="100" viewBox="0 0 100 100" fill="none" xmlns="http://www.w3.org/2000/svg">
<path fill-rule="evenodd" clip-rule="evenodd" d="M86.5875 13.4142C86.8786 13.7045 87.1095 14.0493 87.267 14.429C87.4245 14.8086 87.5056 15.2156 87.5056 15.6267C87.5056 16.0377 87.4245 16.4447 87.267 16.8244C87.1095 17.204 86.8786 17.5489 86.5875 17.8392L17.8375 86.5892C17.2508 87.176 16.4549 87.5056 15.625 87.5056C14.7952 87.5056 13.9993 87.176 13.4125 86.5892C12.8257 86.0024 12.4961 85.2065 12.4961 84.3767C12.4961 83.5468 12.8257 82.751 13.4125 82.1642L82.1625 13.4142C82.4528 13.1232 82.7977 12.8923 83.1773 12.7347C83.557 12.5772 83.964 12.4961 84.375 12.4961C84.7861 12.4961 85.1931 12.5772 85.5727 12.7347C85.9524 12.8923 86.2973 13.1232 86.5875 13.4142V13.4142Z" fill="white"/>
<path fill-rule="evenodd" clip-rule="evenodd" d="M13.4122 13.4142C13.1212 13.7045 12.8903 14.0493 12.7328 14.429C12.5752 14.8086 12.4941 15.2156 12.4941 15.6267C12.4941 16.0377 12.5752 16.4447 12.7328 16.8244C12.8903 17.204 13.1212 17.5489 13.4122 17.8392L82.1622 86.5892C82.749 87.176 83.5449 87.5056 84.3747 87.5056C85.2046 87.5056 86.0004 87.176 86.5872 86.5892C87.174 86.0024 87.5037 85.2065 87.5037 84.3767C87.5037 83.5468 87.174 82.751 86.5872 82.1642L17.8372 13.4142C17.5469 13.1232 17.2021 12.8923 16.8224 12.7347C16.4428 12.5772 16.0358 12.4961 15.6247 12.4961C15.2137 12.4961 14.8067 12.5772 14.427 12.7347C14.0474 12.8923 13.7025 13.1232 13.4122 13.4142V13.4142Z" fill="white"/>
</svg>
